:SAMPLES-PER-SECOND 30
:FULLY-SPECIFIED
:DEGREES
348
root  -11.2885 38.5076 12.637 -13.2183 66.0089 -9.44019
RightUpLeg  -8.74015 -8.61486 -5.41107
RightLeg  23.5549 6.45199 2.84154
RightFoot  -9.45094 -0.182079 7.18877
RightToes  5.82063e-011 0 -3.6325e-017
Spine  10.8002 -2.12633 13.4759
Spine1  6.39964 0.534411 -3.53805
HEad  -13.7478 23.984 -10.022
LeftShoulder1  -0.156949 3.91226 -32.2802
LeftArm  -3.35585 -2.32552 -44.8831
LeftForeArm  27.6331 -2.50385 -9.19002
LeftHand  0.0165767 7.08175 3.49004
RightShoulder  -0.371026 -4.64451 25.5212
RightArm  11.9406 -3.21747 47.6838
RightForeArm  7.11207 9.29991 6.65462
RightHand  -0.484382 3.01158 -6.91888
LeftUpLeg  -5.04583 -6.75611 6.3342
LeftLeg  57.3491 0.429188 1.17126
LeftFoot  6.82884 -0.0160693 -0.0578125
LeftToes  1.81573e-012 2.54609e-010 -3.45981e-011
349
root  -10.6249 38.7967 13.4742 -11.7774 68.1574 -7.83975
RightUpLeg  -5.82131 -10.368 -6.14438
RightLeg  21.8415 6.36441 2.57888
RightFoot  -10.301 -0.134672 7.07415
RightToes  5.82063e-011 0 -3.6325e-017
Spine  11.002 -1.98117 13.3928
Spine1  6.03455 0.784715 -4.28381
HEad  -13.3861 22.2113 -10.1076
LeftShoulder1  -0.211919 4.05435 -32.3388
LeftArm  -3.10705 0.69146 -41.8157
LeftForeArm  27.7097 -3.15422 -9.36488
LeftHand  -0.0181794 6.87121 1.39127
RightShoulder  -0.378596 -4.67542 25.3267
RightArm  12.6223 -1.83183 47.4979
RightForeArm  6.70825 9.2883 6.88316
RightHand  -0.502759 2.99153 -7.18504
LeftUpLeg  -8.95334 -3.65609 5.39822
LeftLeg  59.4846 0.696466 1.8231
LeftFoot  4.46521 -0.101597 0.477494
LeftToes  1.81573e-012 2.54609e-010 -3.45981e-011
350
root  -9.93867 39.0133 14.2311 -10.3867 70.4965 -6.57833
RightUpLeg  -3.26785 -12.1817 -6.81476
RightLeg  20.3911 5.98828 2.43366
RightFoot  -11.0265 -0.0927208 6.4583
RightToes  5.82063e-011 0 -3.6325e-017
Spine  10.7359 -1.74478 13.9304
Spine1  6.11504 1.2677 -5.42601
HEad  -13.006 20.5241 -9.89989
LeftShoulder1  -0.131387 3.85239 -31.589
LeftArm  -3.00241 3.32181 -39.7401
LeftForeArm  28.2937 -3.60352 -9.3993
LeftHand  -0.029347 6.78725 0.596347
RightShoulder  -0.429423 -4.84783 25.0393
RightArm  12.8047 -0.953385 47.5628
RightForeArm  5.46836 9.86697 6.85286
RightHand  -0.532698 3.08767 -7.52154
LeftUpLeg  -12.5575 -0.586674 4.10496
LeftLeg  58.628 0.000692429 0.568235
LeftFoot  2.39912 0.134995 -1.20717
LeftToes  1.81573e-012 2.54609e-010 -3.45981e-011
351
root  -9.20332 39.2033 14.9843 -8.65054 73.2027 -4.91633
RightUpLeg  -0.309624 -13.3208 -7.61032
RightLeg  18.4979 4.64296 2.21425
RightFoot  -11.7181 -0.0597434 5.99207
RightToes  5.82063e-011 0 -3.6325e-017
Spine  10.1197 -1.43193 13.8493
Spine1  6.51642 1.562 -5.99403
HEad  -12.1566 18.4289 -9.75065
LeftShoulder1  -0.0735251 3.70039 -31.3093
LeftArm  -2.51905 5.61324 -37.7007
LeftForeArm  28.5664 -4.55735 -9.60813
LeftHand  -0.0278342 6.03501 0.670472
RightShoulder  -0.459683 -4.94354 25.0603
RightArm  13.1279 -0.961001 46.9592
RightForeArm  2.9141 12.2586 6.31435
RightHand  -0.532181 3.31361 -7.32968
LeftUpLeg  -15.3433 1.99521 2.16957
LeftLeg  54.9464 -0.987856 -1.02054
LeftFoot  1.01795 0.00796962 -0.123941
LeftToes  1.81573e-012 2.54609e-010 -3.45981e-011
352
root  -8.45907 39.3411 15.6782 -6.9361 75.8105 -3.36105
RightUpLeg  2.59912 -13.7548 -8.19412
RightLeg  16.4392 2.64211 2.1572
RightFoot  -12.3519 -0.0330113 5.76346
RightToes  5.82063e-011 0 -3.6325e-017
Spine  9.92695 -0.99714 13.5894
Spine1  6.31672 1.87104 -6.24225
HEad  -10.9131 16.2339 -9.60566
LeftShoulder1  -0.0740875 3.70421 -30.8512
LeftArm  -2.45791 7.74959 -36.6325
LeftForeArm  28.6596 -5.51385 -9.47339
LeftHand  -0.0322077 5.6524 -0.35208
RightShoulder  -0.401311 -4.7672 24.8116
RightArm  14.2865 -1.40758 46.2904
RightForeArm  0.399141 15.1048 5.75411
RightHand  -0.561916 3.63168 -7.44455
LeftUpLeg  -17.3998 4.52817 0.0940329
LeftLeg  49.0423 -1.33313 -1.23661
LeftFoot  -0.699183 -0.0358791 0.414302
LeftToes  1.81573e-012 2.54609e-010 -3.45981e-011
353
root  -7.71273 39.4356 16.3042 -5.38492 78.6464 -2.05678
RightUpLeg  5.5323 -13.4123 -8.32081
RightLeg  14.0767 -0.340445 2.06188
RightFoot  -12.6601 -0.0218052 5.5635
RightToes  5.82063e-011 0 -3.6325e-017
Spine  9.60598 -0.714375 13.4069
Spine1  6.42109 2.01624 -6.46543
HEad  -10.0333 14.3393 -9.22101
LeftShoulder1  -0.0738801 3.70482 -30.6289
LeftArm  -2.70455 9.39937 -36.0832
LeftForeArm  27.4446 -6.40838 -9.15615
LeftHand  -0.0343024 5.83458 -0.294468
RightShoulder  -0.381989 -4.71902 24.4542
RightArm  15.3838 -1.05779 45.8852
RightForeArm  0.149918 17.2793 5.29634
RightHand  -0.437097 2.27003 -6.81568
LeftUpLeg  -18.6115 6.83039 -2.08434
LeftLeg  40.9365 -0.966838 -0.533597
LeftFoot  -2.11177 -0.00432935 0.219097
LeftToes  1.81573e-012 2.54609e-010 -3.45981e-011
354
root  -6.94451 39.5285 16.8764 -2.17825 81.012 0.703775
RightUpLeg  8.36943 -12.6026 -8.14339
RightLeg  10.9434 -3.50762 1.89553
RightFoot  -12.7977 -0.0128004 5.8246
RightToes  5.82063e-011 0 -3.6325e-017
Spine  9.03033 -0.217639 12.6922
Spine1  6.87721 2.3105 -6.61945
HEad  -9.26428 12.2804 -9.52131
LeftShoulder1  -0.0978726 3.76944 -30.7384
LeftArm  -2.64899 10.5851 -35.6975
LeftForeArm  25.949 -7.02151 -9.02012
LeftHand  -0.0300957 5.61626 0.519727
RightShoulder  -0.425281 -4.8463 24.7679
RightArm  16.6772 -0.228877 45.134
RightForeArm  -2.97709 18.8616 5.21643
RightHand  -0.557153 2.61066 -8.3131
LeftUpLeg  -18.8016 10.3633 -4.7824
LeftLeg  30.4121 -1.14759 -0.160284
LeftFoot  -3.00545 -0.0102943 0.38448
LeftToes  1.81573e-012 2.54609e-010 -3.45981e-011
